<svg id="Capa_1" enable-background="new 0 0 512 512" height="512" viewBox="0 0 512 512" width="512" xmlns="http://www.w3.org/2000/svg"><g><path d="m176.978 248.065c4.142 0 7.5-3.357 7.5-7.5v-15.185c0-4.142-3.358-7.5-7.5-7.5s-7.5 3.358-7.5 7.5v15.185c0 4.143 3.358 7.5 7.5 7.5z"/><path d="m335.021 248.065c4.142 0 7.5-3.357 7.5-7.5v-15.185c0-4.142-3.358-7.5-7.5-7.5s-7.5 3.358-7.5 7.5v15.185c0 4.143 3.358 7.5 7.5 7.5z"/><path d="m282.487 245.041c2.722-3.123 2.396-7.86-.726-10.582-3.123-2.721-7.861-2.396-10.582.727-8.025 9.207-22.311 9.234-30.36 0-2.722-3.123-7.459-3.448-10.582-.727-3.123 2.722-3.448 7.459-.726 10.582 13.991 16.054 38.946 16.1 52.976 0z"/><path d="m36.391 268.229c-.972 6.758-2.135 13.34-3.49 19.585-8.077 37.22 20.325 72.376 58.421 72.376h54.297c6.289 4.827 12.861 9.21 19.674 13.14-3.642 2.962-8.045 6.797-12.826 11.507 0 0 0 .001-.001.001 0 0-.001.001-.001.001-23.743 23.403-52.045 63.161-52.045 119.661 0 4.142 3.358 7.5 7.5 7.5h296.16c4.142 0 7.5-3.358 7.5-7.5 0-53.187-26.146-99.663-64.841-131.149 6.808-3.932 13.381-8.323 19.681-13.161h54.26c38.085 0 66.5-35.147 58.42-72.375-1.355-6.246-2.518-12.829-3.49-19.587 15.367-21.333 13.451-50.313-4.243-69.487-8.92-111.667-102.98-198.741-215.367-198.741-40.404 0-79.845 11.286-114.062 32.638-3.514 2.193-4.585 6.819-2.392 10.333 2.193 3.513 6.818 4.585 10.333 2.392 31.832-19.863 68.528-30.363 106.121-30.363 100.019 0 184.452 74.103 198.894 171.456-8.937-4.339-18.628-6.152-29.178-5.25-9.455-12.392-23.453-20.062-38.102-21.844-55.441-6.833-93.46-28.563-111.188-40.907-12.216-8.506-28.635-8.508-40.852 0-17.729 12.344-55.748 34.074-111.188 40.908-14.856 1.835-28.746 9.503-38.174 21.837-10.058-.856-19.739.707-29.113 5.26 6.843-46.34 30.343-90.984 69.128-123.839 3.161-2.677 3.552-7.41.875-10.57s-7.41-3.553-10.57-.875c-42.655 36.131-71.182 88.407-75.897 147.562-17.712 19.193-19.597 48.178-4.244 69.491zm41.643-72.15c-7.839 21.422-.687 58.828 6.659 79.96-23.471 2.122-43.684-16.483-43.684-39.952 0-20.623 15.786-38.263 37.025-40.008zm48.187-21.829c55.712-6.867 94.878-27.438 117.924-43.486 7.092-4.937 16.619-4.937 23.709 0 55.248 38.469 115.537 42.794 117.925 43.485 22.468 3.14 36.519 21.656 36.59 41.243.039 11.001-.978 22.122-3.174 33.311-3.123 15.818-7.253 25.166-8.979 30.087-41.247 101.782-169.937 136.66-257.346 67.912-22.607-17.841-40.262-41.33-51.054-67.925-9.381-23.118-19.037-66.244-4.968-86.772 6.656-9.699 17.284-16.365 29.373-17.855zm328.501 29.593c.004.003.009.006.013.009 9.884 7.346 16.254 19.101 16.254 32.235 0 23.417-20.187 42.056-43.641 39.957 6.688-19.287 10.087-39.842 10.02-60.604-.063-.356.323-9.029-3.479-19.366.054.004 14.551 3.108 20.833 7.769zm-363.4 141.346c-28.509 0-49.815-26.304-43.762-54.194.69-3.18 1.335-6.437 1.934-9.754 11.86 8.333 26.666 11.632 40.915 9.189 8.984 20.07 21.673 38.597 38.022 54.759zm58.908 64.32v87.491h-34.624c1.884-37.783 17.792-66.925 34.624-87.491zm15-16.15c6.193-5.885 11.504-10.053 14.74-12.434 8.825 4.059 17.977 7.396 27.38 9.986v106.089h-42.12zm196.55 103.641v-87.474c16.828 20.57 32.729 49.704 34.613 87.474zm-15.001-103.633v103.633h-42.13v-31.337c0-4.142-3.358-7.5-7.5-7.5s-7.5 3.358-7.5 7.5v31.337h-67.3v-102.64c22.6 4.199 45.605 4.039 67.3.022v41.281c0 4.142 3.358 7.5 7.5 7.5s7.5-3.358 7.5-7.5v-44.72c9.411-2.587 18.575-5.923 27.417-9.993 3.236 2.38 8.533 6.54 14.713 12.417zm73.9-48.178h-37.064c15.915-15.704 28.867-34.245 38.034-54.75 14.03 2.382 28.834-.751 40.858-9.2.598 3.318 1.244 6.576 1.934 9.755 6.047 27.863-15.223 54.195-43.762 54.195z"/></g></svg>